<mxfile host="Electron" modified="2023-08-27T10:21:29.802Z" agent="Mozilla/5.0 (Macintosh; Intel Mac OS X 10_15_7) AppleWebKit/537.36 (KHTML, like Gecko) draw.io/21.6.8 Chrome/114.0.5735.289 Electron/25.5.0 Safari/537.36" etag="g8H_wfuLovE-95B3OaAu" version="21.6.8" type="device">
  <diagram name="Page-1" id="23g34GuJvc8FkVcm2wR4">
    <mxGraphModel dx="1262" dy="669" grid="1" gridSize="10" guides="1" tooltips="1" connect="1" arrows="1" fold="1" page="1" pageScale="1" pageWidth="1100" pageHeight="850" math="0" shadow="0">
      <root>
        <mxCell id="0" />
        <mxCell id="1" parent="0" />
        <mxCell id="N7yB14ngO35jlV0YnzFC-1" value="C" style="rounded=1;whiteSpace=wrap;html=1;" vertex="1" parent="1">
          <mxGeometry x="160" y="160" width="80" height="40" as="geometry" />
        </mxCell>
        <mxCell id="N7yB14ngO35jlV0YnzFC-2" value="D" style="rounded=1;whiteSpace=wrap;html=1;" vertex="1" parent="1">
          <mxGeometry x="240" y="160" width="80" height="40" as="geometry" />
        </mxCell>
        <mxCell id="N7yB14ngO35jlV0YnzFC-3" value="" style="rounded=1;whiteSpace=wrap;html=1;" vertex="1" parent="1">
          <mxGeometry x="320" y="160" width="80" height="40" as="geometry" />
        </mxCell>
        <mxCell id="N7yB14ngO35jlV0YnzFC-4" value="A" style="rounded=1;whiteSpace=wrap;html=1;" vertex="1" parent="1">
          <mxGeometry x="400" y="160" width="80" height="40" as="geometry" />
        </mxCell>
        <mxCell id="N7yB14ngO35jlV0YnzFC-5" value="B" style="rounded=1;whiteSpace=wrap;html=1;" vertex="1" parent="1">
          <mxGeometry x="480" y="160" width="80" height="40" as="geometry" />
        </mxCell>
        <mxCell id="N7yB14ngO35jlV0YnzFC-7" value="q.data" style="rounded=1;whiteSpace=wrap;html=1;fillColor=none;strokeColor=none;" vertex="1" parent="1">
          <mxGeometry x="30" y="320" width="50" height="40" as="geometry" />
        </mxCell>
        <mxCell id="N7yB14ngO35jlV0YnzFC-10" value="q.len" style="rounded=1;whiteSpace=wrap;html=1;fillColor=none;strokeColor=none;" vertex="1" parent="1">
          <mxGeometry x="30" y="360" width="50" height="40" as="geometry" />
        </mxCell>
        <mxCell id="N7yB14ngO35jlV0YnzFC-11" value="q.offset" style="rounded=1;whiteSpace=wrap;html=1;fillColor=none;strokeColor=none;" vertex="1" parent="1">
          <mxGeometry x="30" y="400" width="50" height="40" as="geometry" />
        </mxCell>
        <mxCell id="N7yB14ngO35jlV0YnzFC-12" value="4" style="rounded=1;whiteSpace=wrap;html=1;" vertex="1" parent="1">
          <mxGeometry x="80" y="360" width="50" height="40" as="geometry" />
        </mxCell>
        <mxCell id="N7yB14ngO35jlV0YnzFC-13" value="3" style="rounded=1;whiteSpace=wrap;html=1;" vertex="1" parent="1">
          <mxGeometry x="80" y="400" width="50" height="40" as="geometry" />
        </mxCell>
        <mxCell id="N7yB14ngO35jlV0YnzFC-14" value="q.data + q.offset" style="rounded=1;whiteSpace=wrap;html=1;" vertex="1" parent="1">
          <mxGeometry x="370" y="320" width="50" height="40" as="geometry" />
        </mxCell>
        <mxCell id="N7yB14ngO35jlV0YnzFC-15" value="" style="endArrow=classic;html=1;rounded=0;exitX=0.5;exitY=0;exitDx=0;exitDy=0;entryX=0;entryY=1;entryDx=0;entryDy=0;" edge="1" parent="1" source="N7yB14ngO35jlV0YnzFC-14" target="N7yB14ngO35jlV0YnzFC-4">
          <mxGeometry width="50" height="50" relative="1" as="geometry">
            <mxPoint x="520" y="370" as="sourcePoint" />
            <mxPoint x="570" y="320" as="targetPoint" />
          </mxGeometry>
        </mxCell>
        <mxCell id="N7yB14ngO35jlV0YnzFC-16" value="0" style="rounded=1;whiteSpace=wrap;html=1;fillColor=none;strokeColor=none;" vertex="1" parent="1">
          <mxGeometry x="160" y="110" width="50" height="40" as="geometry" />
        </mxCell>
        <mxCell id="N7yB14ngO35jlV0YnzFC-17" value="1" style="rounded=1;whiteSpace=wrap;html=1;fillColor=none;strokeColor=none;" vertex="1" parent="1">
          <mxGeometry x="240" y="110" width="50" height="40" as="geometry" />
        </mxCell>
        <mxCell id="N7yB14ngO35jlV0YnzFC-18" value="2" style="rounded=1;whiteSpace=wrap;html=1;fillColor=none;strokeColor=none;" vertex="1" parent="1">
          <mxGeometry x="320" y="110" width="50" height="40" as="geometry" />
        </mxCell>
        <mxCell id="N7yB14ngO35jlV0YnzFC-19" value="3" style="rounded=1;whiteSpace=wrap;html=1;fillColor=none;strokeColor=none;" vertex="1" parent="1">
          <mxGeometry x="400" y="110" width="50" height="40" as="geometry" />
        </mxCell>
        <mxCell id="N7yB14ngO35jlV0YnzFC-20" value="4" style="rounded=1;whiteSpace=wrap;html=1;fillColor=none;strokeColor=none;" vertex="1" parent="1">
          <mxGeometry x="480" y="110" width="50" height="40" as="geometry" />
        </mxCell>
        <mxCell id="N7yB14ngO35jlV0YnzFC-27" style="edgeStyle=orthogonalEdgeStyle;rounded=1;orthogonalLoop=1;jettySize=auto;html=1;exitX=1;exitY=0.5;exitDx=0;exitDy=0;entryX=1;entryY=0.5;entryDx=0;entryDy=0;" edge="1" parent="1" source="N7yB14ngO35jlV0YnzFC-21" target="N7yB14ngO35jlV0YnzFC-25">
          <mxGeometry relative="1" as="geometry" />
        </mxCell>
        <mxCell id="N7yB14ngO35jlV0YnzFC-21" value="" style="rounded=1;whiteSpace=wrap;html=1;" vertex="1" parent="1">
          <mxGeometry x="80" y="480" width="50" height="40" as="geometry" />
        </mxCell>
        <mxCell id="N7yB14ngO35jlV0YnzFC-22" value="0-3" style="rounded=1;whiteSpace=wrap;html=1;" vertex="1" parent="1">
          <mxGeometry x="80" y="520" width="50" height="40" as="geometry" />
        </mxCell>
        <mxCell id="N7yB14ngO35jlV0YnzFC-26" style="edgeStyle=orthogonalEdgeStyle;rounded=1;orthogonalLoop=1;jettySize=auto;html=1;exitX=0.5;exitY=0;exitDx=0;exitDy=0;entryX=0;entryY=1;entryDx=0;entryDy=0;" edge="1" parent="1" source="N7yB14ngO35jlV0YnzFC-25" target="N7yB14ngO35jlV0YnzFC-1">
          <mxGeometry relative="1" as="geometry">
            <Array as="points">
              <mxPoint x="105" y="260" />
              <mxPoint x="160" y="260" />
            </Array>
          </mxGeometry>
        </mxCell>
        <mxCell id="N7yB14ngO35jlV0YnzFC-25" value="" style="rounded=1;whiteSpace=wrap;html=1;" vertex="1" parent="1">
          <mxGeometry x="80" y="320" width="50" height="40" as="geometry" />
        </mxCell>
        <mxCell id="N7yB14ngO35jlV0YnzFC-28" value="iter.q" style="rounded=1;whiteSpace=wrap;html=1;fillColor=none;strokeColor=none;" vertex="1" parent="1">
          <mxGeometry x="30" y="480" width="50" height="40" as="geometry" />
        </mxCell>
        <mxCell id="N7yB14ngO35jlV0YnzFC-29" value="iter.idx" style="rounded=1;whiteSpace=wrap;html=1;fillColor=none;strokeColor=none;" vertex="1" parent="1">
          <mxGeometry x="30" y="520" width="50" height="40" as="geometry" />
        </mxCell>
      </root>
    </mxGraphModel>
  </diagram>
</mxfile>
